<svg viewBox="0 0 370.216 85.784" class="css-8aabad"><path xmlns="http://www.w3.org/2000/svg" d="m77.865 42.892.687-.69c9.641-9.64 9.642-25.328 0-34.97s-25.33-9.643-34.972 0l-.688.687-.688-.688c-9.642-9.642-25.33-9.642-34.973 0s-9.642 25.33.001 34.972l.687.689-.687.687c-9.643 9.642-9.643 25.33 0 34.974 9.642 9.64 25.331 9.64 34.972 0l.688-.689.688.689c9.642 9.64 25.33 9.64 34.972 0 9.642-9.645 9.641-25.332 0-34.974zm-31.24-32.615c7.962-7.963 20.918-7.963 28.88 0s7.963 20.92.001 28.881L52.322 62.342c-1.775 1.776-2.207 3.882-.104 6.01l.792.769c4.442 4.442 11.669 4.442 16.11 0s4.442-11.67.002-16.111l-.688-.688 1.668-1.668.689.688c5.363 5.361 5.363 14.087 0 19.449-5.362 5.361-14.089 5.361-19.45 0 0 0-.338-.284-.794-.744-.42-.426-4.598-4.669.106-9.374L73.836 37.49c7.043-7.042 7.043-18.5 0-25.542-7.042-7.041-18.499-7.041-25.54 0l-.69.688-1.67-1.67zm19.45 55.8c-2.763 2.76-7.258 2.76-10.021 0l-.687-.689 10.02-10.02.688.686a7.097 7.097 0 0 1 0 10.023m-55.799-55.8c7.963-7.963 20.92-7.963 28.883 0l23.182 23.182-1.67 1.671-23.183-23.183c-7.043-7.042-18.499-7.042-25.54 0-7.044 7.042-7.044 18.5 0 25.541l.687.689-1.67 1.67-.689-.688c-7.962-7.962-7.962-20.919 0-28.882m45.092 10.118.687-.689c2.762-2.762 7.257-2.762 10.021 0 2.762 2.763 2.762 7.257 0 10.022l-.688.687zM18.872 50.799l-2.21 2.21c-4.443 4.442-4.442 11.67 0 16.111 4.44 4.442 11.668 4.442 16.11 0l.688-.688c3.394-3.392-.69-6.771-2.656-8.738l-1.28-1.29-6.084-6.084 1.67-1.668 8.092 8.091.638.64c5.95 5.947 1.751 10.257 1.29 10.718l-.688.688c-5.363 5.364-14.088 5.362-19.451 0-5.362-5.361-5.362-14.088 0-19.451l23.185-23.183 1.67 1.672-11.544 11.542zm1.522 4.57 10.02 10.018-.687.689c-2.764 2.761-7.258 2.763-10.02 0s-2.762-7.259 0-10.02zM42.891 32.87l10.02 10.021-10.02 10.019-10.02-10.019zM32.773 16.663c-4.442-4.444-11.67-4.442-16.11 0-4.442 4.44-4.443 11.668 0 16.11l.687.688-1.67 1.67-.688-.688c-5.363-5.363-5.362-14.089 0-19.452 5.363-5.361 14.088-5.362 19.45 0l23.185 23.184-1.67 1.67zm-2.358 3.732-10.02 10.02-.688-.687c-2.763-2.763-2.763-7.258 0-10.022s7.256-2.762 10.02.002zm45.09 55.111c-7.962 7.963-20.918 7.963-28.88 0l-.867-.775c-.189-.19-1.785-1.775-2.962-4.226-1.097 2.316-2.553 3.904-2.949 4.313l-.688.688c-7.963 7.963-20.92 7.963-28.883 0s-7.962-20.919 0-28.883L33.46 23.44l1.67 1.67-23.183 23.183c-7.043 7.043-7.043 18.5 0 25.542 7.042 7.043 18.5 7.043 25.541 0l.726-.726c1.828-1.898 3.208-4.827 3.31-7.844 0-.088.007-.177.008-.264.021-2.358-.75-4.747-2.726-6.724l-3.679-3.68-.353-.376-6.617-6.616 1.67-1.67 9.239 9.238.775.79c1.37 1.371 2.343 2.736 3.013 4.069.672-1.285 1.625-2.602 2.956-3.935l.128-.141 23.185-23.183c4.44-4.442 4.44-11.67-.001-16.112s-11.669-4.442-16.11 0l-.689.69-1.669-1.67.687-.69c5.362-5.362 14.09-5.362 19.45 0 5.364 5.363 5.364 14.089 0 19.45L47.606 57.627l-.731.734c-4.64 4.64-2.818 11.284.576 14.676l.844.8c7.042 7.042 18.5 7.042 25.541 0 7.043-7.043 7.043-18.5 0-25.543l-.688-.688 1.67-1.67.688.689c7.963 7.962 7.963 20.918 0 28.881" fill="#8060ff"/><path d="M106 68.373V16h24.306c5.305 0 9.803 1.209 13.63 3.626s6.648 5.573 8.461 9.467 2.686 8.259 2.686 13.093c0 4.902-.873 9.266-2.686 13.16s-4.633 7.051-8.46 9.401c-3.828 2.417-8.326 3.626-13.63 3.626zm13.429-12.959h9.87q5.842 0 9.065-3.626c2.081-2.35 3.156-5.573 3.156-9.602s-1.075-7.251-3.156-9.601c-2.149-2.35-5.17-3.559-9.065-3.559h-9.87zm41.025 12.959V16h23.098c6.58 0 11.684 1.679 15.242 5.036 3.559 3.424 5.305 7.654 5.305 12.556 0 5.17-1.746 9.467-5.305 12.825-1.141 1.074-2.417 1.947-3.827 2.685l10.475 19.271h-12.69l-9.2-16.853h-9.669v16.853zm13.43-27.597h8.93c5.17 0 7.721-2.35 7.721-7.117 0-2.014-.604-3.626-1.88-4.969s-3.223-1.947-5.841-1.947h-8.93zm36.93 27.597V16h13.428v52.373zm18.8 0V16h13.429v18.062L259.292 16h17.323l-20.68 22.493 21.755 29.88h-16.652L246.6 48.633l-3.558 3.96v15.78zm61.907 1.141c-2.35 0-4.297-.805-5.975-2.484s-2.485-3.626-2.485-5.976.806-4.297 2.485-5.976 3.625-2.484 5.975-2.484 4.298.806 5.976 2.484 2.485 3.626 2.485 5.976-.806 4.297-2.485 5.976-3.625 2.484-5.976 2.484m13.832-1.141V16h13.43v52.373zm35.117 0V29.026h-16.316V16h46.061v13.026H353.9v39.347z" fill="#8060ff"/></svg>